<?xml version="1.0" standalone="no"?>
<!DOCTYPE svg PUBLIC "-//W3C//DTD SVG 20010904//EN"
 "http://www.w3.org/TR/2001/REC-SVG-20010904/DTD/svg10.dtd">
<svg version="1.0" xmlns="http://www.w3.org/2000/svg"
 width="327.000000pt" height="327.000000pt" viewBox="0 0 327.000000 327.000000"
 preserveAspectRatio="xMidYMid meet">
<metadata>
Created by potrace 1.11, written by Peter Selinger 2001-2013
</metadata>
<g transform="translate(0.000000,327.000000) scale(0.100000,-0.100000)"
fill="#000000" stroke="none">
<path d="M0 3197 c0 -43 5 -78 12 -85 9 -9 9 -12 0 -12 -9 0 -12 -302 -12
-1330 0 -880 3 -1330 10 -1330 6 0 10 4 10 9 0 6 11 22 25 37 24 26 25 26 25
5 0 -11 -4 -21 -10 -21 -12 0 -1 -31 15 -45 7 -6 16 -25 19 -43 7 -28 5 -32
-14 -32 -13 0 -24 8 -27 20 -6 23 -12 24 -35 6 -21 -15 -23 -58 -6 -106 10
-29 12 -31 18 -15 4 11 2 32 -4 47 -13 36 -4 43 33 23 17 -9 31 -11 31 -5 0 5
3 10 8 10 4 0 5 -41 3 -91 -4 -120 7 -241 22 -236 8 2 12 40 13 113 1 60 3
136 4 169 1 33 -1 80 -4 105 -7 50 0 81 17 77 10 -2 12 2 16 36 1 8 4 8 11 -3
6 -10 4 -20 -5 -30 -7 -8 -16 -28 -19 -45 -6 -26 -5 -27 3 -7 15 32 20 27 16
-15 -4 -32 -3 -34 4 -13 5 14 9 37 10 53 1 20 6 27 22 27 11 0 17 -5 14 -10
-3 -6 -1 -10 4 -10 6 0 11 7 11 15 0 17 16 20 25 5 4 -6 23 -8 46 -5 36 6 56
-8 27 -18 -10 -3 -10 -8 1 -21 10 -12 11 -20 4 -24 -8 -5 -7 -12 2 -25 12 -16
14 -14 23 26 5 24 7 58 4 76 -2 18 0 31 6 31 6 0 13 8 16 18 3 10 15 18 26 19
11 1 18 -2 15 -8 -4 -5 -14 -9 -23 -9 -13 0 -11 -6 11 -25 15 -14 27 -31 27
-37 0 -17 29 12 47 46 11 21 12 31 4 34 -6 2 -11 21 -11 41 0 30 5 40 25 51
13 7 22 16 20 20 -8 12 16 70 28 70 7 0 3 8 -8 16 -20 15 -20 15 3 34 15 12
18 20 10 23 -20 7 -2 20 30 21 24 1 27 4 24 28 -2 16 -9 28 -15 28 -6 0 -2 7
9 15 10 8 15 15 9 15 -5 0 -11 24 -12 53 -1 28 -10 77 -20 107 -16 50 -21 55
-53 61 -19 3 -48 11 -63 18 -16 6 -33 8 -39 5 -6 -4 -8 -2 -5 3 4 6 -5 19 -20
28 -91 60 -133 158 -135 320 -1 52 -4 95 -7 95 -9 0 -6 175 3 253 9 71 7 75
-34 52 -40 -23 -48 -17 -15 11 16 14 31 30 31 35 1 5 2 14 3 19 0 6 6 10 12
10 8 0 8 -5 -1 -15 -9 -10 -9 -15 -1 -15 9 0 15 14 9 23 -1 1 4 13 11 25 12
23 12 24 -21 17 -32 -7 -33 -7 -16 12 14 15 15 22 6 31 -9 9 -7 12 9 12 16 0
22 7 25 35 2 19 0 35 -6 35 -6 0 -5 5 2 12 7 7 12 19 11 28 0 12 -2 12 -6 1
-8 -19 -36 -51 -45 -51 -4 0 -5 7 -1 16 5 14 3 15 -16 5 -12 -7 -27 -10 -34
-7 -7 2 -5 5 5 5 9 1 19 5 22 10 4 5 -3 7 -14 4 -11 -3 -20 0 -20 6 0 6 6 11
14 11 14 0 30 29 21 38 -3 3 -11 -1 -18 -9 -6 -8 -21 -21 -32 -29 -15 -11 -14
-8 4 13 14 15 21 27 16 27 -5 0 6 11 25 25 44 32 23 32 -40 0 -28 -14 -50 -22
-50 -18 0 5 32 24 72 43 92 45 92 45 83 30 -5 -9 -4 -11 3 -6 7 4 12 2 12 -3
0 -6 5 -11 10 -11 6 0 10 7 10 15 0 8 -3 14 -7 14 -21 -3 -24 3 -12 18 13 16
13 16 -11 0 -40 -28 -43 -20 -7 17 42 42 53 79 32 109 l-15 21 -1 -24 c-1 -14
0 -31 1 -39 1 -8 -4 -17 -10 -21 -6 -4 -12 -14 -13 -22 -4 -26 -45 -61 -63
-54 -15 6 -15 9 6 31 13 14 18 25 12 25 -6 0 -14 -4 -17 -10 -3 -5 -13 -10
-22 -10 -14 0 -13 3 3 21 19 22 19 22 -9 15 -16 -4 -27 -2 -27 4 0 5 6 10 13
10 7 0 28 15 46 34 21 22 39 32 49 29 11 -5 13 -3 6 8 -4 8 -9 28 -9 44 0 23
-5 31 -22 33 -44 6 -21 28 24 23 6 -1 14 3 17 8 3 5 0 9 -7 8 -47 -1 -49 2
-17 41 17 21 32 47 35 58 2 10 7 29 11 42 4 13 2 22 -5 22 -6 0 -11 -8 -12
-17 0 -12 -2 -13 -6 -5 -3 9 -19 2 -50 -24 -72 -59 -60 -32 21 48 42 41 76 79
76 86 0 6 12 24 26 41 14 17 23 31 19 31 -4 0 7 13 24 29 34 32 40 51 15 51
-10 0 -14 -6 -11 -14 3 -7 -13 -28 -38 -49 -33 -28 -44 -33 -49 -22 -3 9 3 19
14 25 22 12 100 93 95 98 -2 2 -15 -4 -29 -13 -15 -10 -26 -13 -26 -7 0 15 28
29 72 36 40 6 93 50 82 68 -4 6 -3 8 3 5 6 -4 13 0 17 8 3 8 0 15 -7 15 -8 0
-7 3 2 9 8 5 19 7 25 5 6 -2 33 14 60 35 41 32 55 38 84 35 19 -3 42 -9 51
-14 13 -8 12 -9 -7 -10 -13 0 -32 5 -43 10 -15 9 -19 7 -20 -7 0 -10 -3 -13
-6 -6 -7 18 -53 -14 -47 -32 3 -7 -3 -16 -14 -19 -11 -4 -23 -14 -26 -22 -7
-19 41 17 62 47 7 10 18 17 23 13 5 -3 17 0 26 8 15 11 16 11 10 -4 -4 -11 -2
-18 5 -18 16 0 3 -11 -16 -14 -9 -1 -16 -5 -16 -9 0 -4 0 -14 0 -22 0 -8 9
-15 20 -15 13 0 18 -5 14 -15 -4 -8 -3 -15 0 -15 4 0 11 10 16 23 l9 22 0 -22
c1 -13 7 -23 14 -23 6 0 4 -5 -7 -11 -13 -8 -25 -8 -44 0 -22 11 -24 10 -12
-3 25 -31 65 -19 110 32 23 26 32 34 21 18 -12 -16 -21 -37 -21 -47 0 -11 -3
-19 -7 -19 -5 0 -16 -14 -25 -30 -9 -17 -24 -30 -33 -30 -13 0 -14 -4 -4 -22
12 -22 12 -22 20 -3 6 17 8 16 8 -7 1 -16 5 -28 10 -28 5 0 11 -11 13 -23 4
-20 1 -24 -21 -23 -18 1 -26 -5 -29 -19 -2 -16 -1 -17 7 -5 8 12 11 8 11 -17
0 -18 -4 -33 -10 -33 -5 0 -10 6 -10 13 0 8 -3 7 -10 -3 -13 -22 -17 -10 -12
37 2 24 8 40 13 37 5 -3 9 5 9 17 l0 22 20 -23 c22 -25 26 -20 9 11 -6 11 -17
18 -24 15 -8 -3 -16 0 -19 7 -3 7 -3 2 0 -10 4 -16 1 -23 -9 -23 -11 0 -16 14
-19 45 -2 31 0 44 8 41 7 -3 22 6 35 20 18 19 19 24 6 24 -9 0 -21 -8 -27 -17
-7 -12 -13 -14 -16 -6 -7 16 -44 -24 -72 -79 -27 -53 -41 -128 -23 -128 6 0
11 10 11 22 0 20 1 21 13 4 12 -16 14 -16 26 -2 9 10 10 16 2 16 -7 0 -8 8 -2
23 4 12 6 29 3 37 -4 11 1 10 17 -4 25 -23 26 -27 6 -20 -10 4 -15 0 -15 -10
0 -9 7 -19 16 -23 11 -4 13 -13 8 -36 -4 -20 -3 -27 5 -23 16 10 14 -27 -4
-50 -16 -21 -20 -38 -6 -30 17 11 -1 -32 -20 -50 -23 -21 -25 -7 -2 18 9 10
13 21 10 24 -10 11 -46 -39 -47 -63 0 -13 -4 -23 -10 -23 -5 0 -7 8 -3 18 5
14 3 15 -8 5 -21 -20 -32 -15 -26 13 l4 25 -22 -21 c-12 -11 -24 -17 -28 -14
-9 9 -27 -41 -27 -72 0 -16 -4 -23 -11 -18 -6 4 -9 19 -5 38 l6 31 -21 -25
c-15 -19 -18 -20 -10 -4 10 20 9 70 -2 80 -3 3 -8 -21 -12 -53 -11 -98 -20
-136 -33 -141 -8 -2 -10 3 -7 15 3 10 -1 5 -9 -12 -9 -20 -15 -25 -18 -15 -5
15 -2 -2 7 -42 5 -21 5 -21 -4 -3 -7 17 -10 14 -20 -22 -7 -24 -13 -43 -15
-43 -1 0 -1 25 2 56 4 54 -4 73 -30 74 -12 0 -10 -38 2 -45 13 -8 13 -62 1
-70 -6 -3 -8 -18 -7 -33 2 -15 4 -35 5 -44 1 -14 10 -18 36 -18 26 0 33 4 29
14 -4 10 1 15 13 14 10 0 27 3 37 7 18 8 18 7 -1 -12 -12 -12 -30 -24 -42 -28
-21 -6 -28 -20 -13 -28 4 -2 2 -3 -4 -1 -6 1 -19 -9 -29 -22 -10 -14 -24 -23
-32 -20 -7 3 -13 1 -13 -4 0 -19 41 -22 55 -3 7 10 25 18 39 18 24 1 25 0 9
-17 -16 -18 -16 -18 2 -12 13 5 16 4 11 -4 -4 -7 -14 -12 -22 -12 -8 0 -17 -7
-20 -15 -4 -8 -10 -12 -15 -9 -5 3 -2 12 6 20 16 16 20 34 8 34 -11 0 -30 -44
-25 -58 2 -7 10 -12 18 -12 8 0 14 -5 14 -11 0 -7 -10 -9 -25 -5 -17 4 -25 2
-25 -6 0 -9 -3 -8 -10 2 -7 12 -12 12 -21 3 -10 -10 -9 -14 4 -19 20 -7 22
-30 5 -37 -7 -3 2 -10 20 -17 21 -8 32 -19 32 -31 0 -11 7 -19 16 -19 10 0 14
-6 11 -15 -9 -22 8 -27 50 -16 20 6 39 8 42 6 7 -8 -3 -14 -29 -18 -31 -5 -39
-27 -8 -23 13 1 29 6 36 10 17 10 15 -9 -2 -23 -11 -9 -15 -9 -18 0 -2 7 -12
-4 -21 -23 -17 -35 -14 -68 5 -68 5 0 7 4 4 8 -2 4 -1 14 4 22 7 12 10 12 16
-3 5 -15 10 -13 35 15 33 38 40 24 8 -16 -12 -15 -19 -30 -15 -33 3 -4 6 -1 6
5 0 7 5 12 10 12 7 0 7 -7 0 -21 -9 -16 -8 -26 4 -44 9 -14 16 -31 16 -40 0
-18 16 -20 18 -2 13 105 13 128 1 144 -10 11 -10 14 -1 9 8 -5 12 -1 12 12 0
16 -5 19 -22 15 -23 -4 -23 -4 -3 14 11 10 29 44 40 77 10 32 28 70 39 85 14
18 15 22 4 13 -15 -12 -16 -10 -11 25 3 21 14 46 25 56 28 24 6 21 -26 -4 -19
-15 -34 -19 -56 -14 -23 5 -30 3 -30 -9 0 -9 -4 -17 -10 -17 -5 -1 -16 -2 -22
-3 -7 -1 -28 5 -46 13 -29 13 -34 13 -42 1 -8 -13 -10 -13 -10 1 0 21 22 30
41 18 18 -11 42 -12 35 -1 -3 5 4 8 14 8 11 -1 18 2 17 6 -2 8 34 37 47 38 5
0 3 -7 -5 -16 -10 -13 -10 -17 2 -25 28 -17 57 -5 70 30 8 20 12 22 19 11 10
-16 8 -20 30 60 l13 45 17 -73 c21 -90 28 -98 27 -33 0 30 -4 48 -10 44 -6 -4
-8 11 -5 41 5 39 3 45 -8 35 -8 -7 -17 -9 -21 -5 -3 3 -2 6 4 6 6 0 11 11 11
25 0 14 -4 25 -9 25 -5 0 -9 -9 -9 -19 0 -11 -5 -23 -11 -27 -8 -4 -10 6 -6
35 5 47 14 62 26 42 10 -15 21 7 21 42 0 17 2 19 9 8 14 -22 19 80 6 114 -13
32 -13 70 -2 81 4 4 7 -6 8 -22 0 -24 2 -26 8 -10 7 19 8 18 15 -5 7 -23 8
-23 26 16 11 22 20 36 20 31 0 -14 30 16 47 47 20 39 19 165 -1 231 -18 59 -3
49 17 -13 9 -24 13 -58 10 -76 -3 -18 -1 -41 5 -51 9 -16 11 -15 10 11 -1 42
12 95 23 95 12 0 5 40 -8 48 -6 4 -9 22 -7 41 3 22 -1 38 -11 45 -10 8 -12 15
-5 26 8 13 10 13 10 -1 0 -18 40 -49 62 -49 7 0 -2 14 -20 31 -17 16 -32 34
-32 40 0 14 -26 11 -40 -6 -7 -9 -15 -13 -17 -11 -3 3 11 20 30 39 24 24 34
30 33 19 -1 -12 6 -16 24 -15 25 3 25 2 5 -13 -19 -16 -19 -16 7 -10 22 5 26
3 22 -9 -4 -9 0 -15 10 -15 8 0 13 6 10 13 -5 13 53 63 63 54 2 -3 -3 -18 -12
-34 l-17 -28 27 30 c17 18 23 31 16 33 -9 3 -9 7 0 18 15 19 4 18 -29 -3 -34
-21 -18 -5 31 31 20 15 37 32 37 38 0 7 -4 7 -12 1 -22 -17 -169 -36 -181 -24
-8 8 -6 11 8 12 11 1 24 1 28 0 21 -4 86 21 102 39 l19 21 -190 -1 c-115 -1
-194 -6 -201 -12 -9 -7 -13 -7 -13 1 0 8 -93 11 -330 11 l-330 0 0 -73z m705
53 c-3 -5 -11 -10 -16 -10 -6 0 -7 5 -4 10 3 6 11 10 16 10 6 0 7 -4 4 -10z
m-55 -9 c0 -5 -15 -20 -32 -33 -57 -43 -64 -43 -23 0 40 41 55 50 55 33z m120
-5 c0 -3 -4 -8 -10 -11 -5 -3 -10 -1 -10 4 0 6 5 11 10 11 6 0 10 -2 10 -4z
m50 -6 c13 -8 13 -10 -2 -10 -9 0 -20 5 -23 10 -8 13 5 13 25 0z m27 -212 c2
-17 0 -19 -7 -8 -5 8 -6 18 -4 22 8 12 10 10 11 -14z m-39 -69 c19 -30 11 -32
-11 -3 -10 13 -14 24 -10 24 5 0 14 -9 21 -21z m102 -3 c0 -2 -7 -6 -15 -10
-8 -3 -15 -1 -15 4 0 6 7 10 15 10 8 0 15 -2 15 -4z m-178 -188 c-7 -7 -12 -8
-12 -2 0 14 12 26 19 19 2 -3 -1 -11 -7 -17z m-537 -48 c3 -5 1 -10 -4 -10 -6
0 -11 5 -11 10 0 6 2 10 4 10 3 0 8 -4 11 -10z m505 -50 c-10 -19 -30 -28 -30
-14 0 6 30 33 38 34 1 0 -2 -9 -8 -20z m-131 -48 c11 11 11 9 2 -10 -10 -19
-15 -21 -27 -11 -8 6 -14 21 -14 33 1 21 1 21 13 -2 10 -18 15 -20 26 -10z
m132 1 c-8 -15 -10 -15 -11 -2 0 17 10 32 18 25 2 -3 -1 -13 -7 -23z m-31 -8
c0 -8 7 -15 15 -15 11 0 12 -5 5 -25 -5 -14 -9 -29 -9 -33 3 -17 -2 -32 -9
-32 -5 0 -8 15 -7 34 0 28 -2 33 -12 24 -9 -7 -10 -14 -3 -23 11 -14 3 -45
-11 -45 -5 0 -9 -7 -9 -15 0 -8 -5 -14 -12 -12 -7 1 -15 -17 -19 -47 -11 -70
-28 -81 -27 -18 0 30 8 67 19 89 10 20 19 31 19 23 1 -11 3 -10 11 3 6 10 8
22 4 25 -7 7 -21 -8 -58 -59 -17 -23 -17 -23 -7 -1 7 13 9 31 5 40 -3 9 -3 13
1 9 4 -3 21 14 39 38 17 25 35 42 38 38 4 -3 7 -1 7 5 0 7 5 12 10 12 6 0 10
-7 10 -15z m-131 -47 c0 -13 -7 -39 -14 -58 l-14 -35 6 40 c4 22 6 48 5 58 0
9 3 17 9 17 5 0 9 -10 8 -22z m-72 -55 c-21 -40 -47 -106 -47 -118 0 -8 15
-19 33 -24 28 -8 29 -9 7 -10 -43 -1 -54 12 -46 59 3 23 16 55 28 71 20 27 35
39 25 22z m233 -78 c0 -5 -5 -3 -10 5 -5 8 -10 20 -10 25 0 6 5 3 10 -5 5 -8
10 -19 10 -25z m-150 10 c0 -8 -4 -15 -10 -15 -5 0 -7 7 -4 15 4 8 8 15 10 15
2 0 4 -7 4 -15z m76 -21 c-4 -9 -9 -15 -11 -12 -3 3 -3 13 1 22 4 9 9 15 11
12 3 -3 3 -13 -1 -22z m-154 -13 c-9 -16 -18 -28 -20 -27 -6 7 18 56 27 56 6
0 2 -13 -7 -29z m134 -87 c-4 -20 -10 -34 -13 -30 -3 3 -2 21 1 42 4 20 10 34
13 30 3 -3 2 -21 -1 -42z m31 14 c-3 -7 -5 -2 -5 12 0 14 2 19 5 13 2 -7 2
-19 0 -25z m-262 -26 c-3 -3 -11 0 -18 7 -9 10 -8 11 6 5 10 -3 15 -9 12 -12z
m205 -4 c0 -7 -10 -28 -21 -47 -18 -31 -22 -33 -31 -18 -5 10 -7 23 -4 30 2 7
5 4 5 -5 1 -18 21 -26 21 -9 0 15 19 61 25 61 3 0 5 -6 5 -12z m-95 -28 c-3
-5 -21 -9 -38 -9 l-32 2 35 7 c19 4 36 8 38 9 2 0 0 -3 -3 -9z m-40 -160 c-3
-5 -13 -10 -21 -10 -8 0 -12 5 -9 10 3 6 13 10 21 10 8 0 12 -4 9 -10z m9 -49
c3 -5 -3 -11 -15 -14 -16 -4 -18 -3 -8 9 13 16 16 17 23 5z m-24 -45 c0 -3 -4
-8 -10 -11 -5 -3 -10 -1 -10 4 0 6 5 11 10 11 6 0 10 -2 10 -4z m95 -6 c-3 -5
-14 -10 -23 -9 -14 0 -13 2 3 9 27 11 27 11 20 0z m35 -59 c0 -6 -4 -13 -10
-16 -5 -3 -10 1 -10 9 0 9 5 16 10 16 6 0 10 -4 10 -9z m-35 -11 c3 -5 1 -10
-4 -10 -6 0 -11 5 -11 10 0 6 2 10 4 10 3 0 8 -4 11 -10z m33 -106 c0 -17 -3
-22 -8 -13 -5 6 -6 18 -3 26 8 19 11 16 11 -13z m-8 -844 c0 -11 -4 -20 -9
-20 -5 0 -11 9 -14 20 -3 13 0 20 9 20 8 0 14 -9 14 -20z m-91 -403 c-13 -12
-32 -21 -41 -19 -21 5 -14 20 16 32 40 16 50 11 25 -13z m-281 -42 c-1 -1 -13
-6 -25 -9 -17 -5 -23 -3 -23 7 0 10 7 13 20 10 15 -4 20 0 21 13 1 18 2 18 6
1 3 -10 3 -20 1 -22z m292 20 c0 -8 -4 -15 -10 -15 -5 0 -10 7 -10 15 0 8 5
15 10 15 6 0 10 -7 10 -15z m-260 -25 c0 -5 -5 -10 -11 -10 -5 0 -7 5 -4 10 3
6 8 10 11 10 2 0 4 -4 4 -10z m259 -42 c1 -5 -3 -8 -9 -8 -5 0 -10 12 -9 28 0
24 1 25 9 7 5 -11 9 -23 9 -27z m-234 3 c0 -23 -22 -24 -28 -1 -4 16 -1 20 11
18 9 -2 17 -10 17 -17z m115 -5 c0 -3 -4 -8 -10 -11 -5 -3 -10 -1 -10 4 0 6 5
11 10 11 6 0 10 -2 10 -4z"/>
<path d="M627 2573 c-4 -3 -7 -11 -7 -17 0 -6 5 -5 12 2 6 6 9 14 7 17 -3 3
-9 2 -12 -2z"/>
<path d="M1070 3255 c-11 -13 -8 -13 19 -4 35 12 40 19 12 19 -10 0 -24 -7
-31 -15z"/>
<path d="M1157 3246 c-46 -28 -78 -77 -84 -126 l-3 -35 15 28 c9 15 13 32 9
38 -4 8 1 9 17 4 20 -7 22 -5 12 6 -16 20 7 42 25 23 9 -10 9 -14 -1 -17 -7
-3 1 -6 16 -6 15 -1 47 9 70 21 23 12 47 22 52 23 20 2 48 18 71 41 l23 24
-23 0 c-12 0 -41 -16 -64 -36 -23 -20 -48 -34 -55 -31 -6 2 -20 0 -31 -5 -13
-7 -16 -7 -12 1 4 6 32 22 62 36 30 14 54 27 54 29 0 7 -79 0 -87 -8 -4 -4 0
-4 10 0 29 11 19 -5 -14 -22 -23 -11 -29 -12 -23 -2 11 17 14 38 6 38 -4 0
-24 -11 -45 -24z"/>
<path d="M1399 3257 c-9 -7 -14 -18 -11 -25 4 -14 -19 -12 -30 3 -4 5 -6 0 -5
-13 1 -21 17 -32 17 -12 0 5 7 7 16 3 15 -5 15 -7 0 -15 -9 -5 -16 -17 -16
-27 0 -24 36 -65 45 -51 5 8 11 7 23 -2 10 -8 13 -9 9 -1 -4 6 -3 14 3 18 5 3
10 2 10 -4 0 -6 6 -8 14 -5 8 3 17 1 21 -5 3 -7 -2 -11 -14 -11 -11 0 -23 -4
-26 -10 -4 -6 6 -8 25 -6 20 2 29 -1 27 -8 -2 -6 -16 -12 -30 -14 -25 -3 -26
-5 -11 -20 15 -15 17 -15 29 1 14 20 39 22 52 5 16 -20 23 -48 13 -48 -5 0
-12 9 -15 20 -7 24 -37 26 -55 5 -9 -10 -9 -15 -1 -15 6 0 11 -6 11 -13 0 -7
9 -18 21 -25 19 -12 20 -12 14 9 -7 21 -6 21 7 8 9 -8 19 -26 23 -39 8 -24 8
-24 16 -5 6 16 8 14 8 -12 1 -18 6 -32 12 -30 6 1 20 -24 33 -57 12 -32 36
-73 54 -92 35 -37 18 -50 -18 -14 -12 12 -20 15 -20 8 1 -15 28 -53 38 -53 20
-2 74 -39 89 -62 10 -15 28 -38 39 -51 l22 -23 22 28 c20 25 22 25 16 6 -5
-14 -3 -23 3 -23 6 0 11 -5 11 -11 0 -8 -4 -8 -14 0 -10 9 -16 9 -21 1 -11
-17 2 -24 48 -26 23 -1 45 -2 49 -3 3 -1 4 -10 1 -21 -3 -11 0 -20 6 -20 6 0
11 5 11 11 0 6 9 8 20 4 14 -4 20 -2 20 9 0 8 5 18 11 22 8 4 9 0 4 -15 -5
-15 -2 -21 9 -21 9 0 16 -7 16 -15 0 -20 22 -14 37 10 12 19 12 19 13 -5 0
-20 2 -22 10 -10 9 13 12 13 24 -2 7 -10 16 -15 19 -11 4 3 7 1 7 -5 0 -7 7
-12 15 -12 8 0 15 -4 15 -10 0 -5 7 -10 15 -10 8 0 15 -7 15 -15 0 -9 6 -15
13 -13 6 1 29 -6 49 -16 26 -13 35 -22 31 -33 -4 -11 -2 -14 5 -9 7 4 12 2 12
-3 0 -6 7 -11 15 -11 8 0 25 -11 39 -25 14 -14 28 -25 31 -25 13 0 55 -50 55
-65 0 -9 4 -14 9 -11 8 5 35 -50 33 -66 -1 -3 5 -12 13 -18 23 -19 18 -56 -10
-74 -26 -17 -39 -21 -32 -8 3 4 -8 7 -24 7 -16 0 -29 -3 -29 -7 0 -8 -83 -3
-98 6 -6 3 -17 0 -25 -8 -8 -8 -17 -13 -20 -10 -8 8 -47 -19 -47 -32 0 -6 -9
-19 -19 -28 -11 -10 -22 -28 -25 -41 -3 -13 -15 -26 -25 -30 -11 -3 -27 -17
-36 -31 -9 -14 -22 -23 -28 -21 -7 2 -22 -7 -34 -20 -24 -26 -29 -43 -13 -43
6 0 10 -13 10 -29 0 -16 7 -37 16 -46 9 -9 14 -25 11 -35 -3 -11 -1 -20 5 -20
6 0 7 -8 4 -17 -4 -9 -3 -19 2 -22 13 -9 23 -69 12 -76 -9 -5 18 -67 33 -73 4
-2 5 -7 3 -11 -2 -3 2 -32 9 -64 7 -31 9 -57 5 -57 -5 0 -5 -12 -1 -27 4 -16
6 -34 4 -40 -3 -7 0 -13 6 -13 5 0 22 -20 36 -45 l27 -45 -21 -29 c-20 -28
-69 -52 -133 -65 -28 -6 -39 -26 -15 -26 6 -1 -5 -7 -27 -15 -29 -10 -53 -11
-94 -4 -38 6 -60 5 -67 -2 -7 -7 -4 -8 9 -3 13 5 17 4 12 -4 -4 -7 -16 -12
-27 -12 -10 0 -19 -4 -19 -9 0 -5 -3 -17 -7 -27 -6 -17 -5 -17 17 -1 27 18 45
22 36 8 -9 -14 4 -41 20 -41 8 0 14 -9 14 -19 0 -15 13 -23 51 -34 28 -9 57
-13 64 -11 7 3 16 1 19 -4 3 -6 -8 -15 -24 -21 -17 -5 -30 -15 -30 -20 0 -6
-4 -11 -10 -11 -5 0 -10 7 -10 16 0 13 -7 15 -31 10 -17 -3 -48 -6 -68 -7 -20
0 -30 -3 -23 -6 6 -2 12 -9 12 -14 0 -4 -7 -6 -16 -2 -9 3 -20 0 -26 -8 -6
-10 -7 -7 -3 11 6 19 5 22 -5 14 -7 -7 -9 -21 -5 -34 4 -13 10 -18 14 -12 3 6
33 10 68 9 35 -1 58 -3 53 -5 -6 -2 -10 -16 -9 -30 0 -26 1 -26 9 -5 6 14 21
24 44 28 41 8 55 2 51 -23 -2 -9 -4 -20 -4 -24 -1 -5 -25 -8 -53 -8 -41 0 -49
-3 -38 -11 12 -9 11 -10 -5 -4 -11 4 -40 9 -65 11 -28 2 -49 9 -57 20 -7 10
-13 13 -13 8 0 -16 -63 -3 -77 15 -14 19 -8 32 12 24 8 -3 15 -1 15 5 0 17
-24 20 -38 5 -16 -16 -36 -17 -26 -2 4 8 -1 9 -17 3 -25 -9 -88 -8 -126 1 -15
3 -20 10 -17 20 4 9 0 15 -9 15 -8 0 -17 -7 -21 -15 -3 -8 -1 -15 5 -15 6 0 8
-4 4 -10 -3 -5 -12 -7 -21 -3 -8 3 -14 1 -12 -5 2 -5 -9 -21 -24 -35 -16 -14
-28 -21 -28 -16 0 6 -5 7 -11 4 -6 -4 -8 -13 -5 -21 3 -7 1 -16 -5 -19 -5 -4
-6 -11 -3 -17 5 -7 12 -4 21 7 12 18 13 18 13 -2 0 -16 8 -22 35 -25 22 -3 35
0 35 8 0 29 27 35 64 13 31 -18 44 -20 101 -14 45 5 65 4 65 -4 0 -6 7 -11 16
-11 8 0 12 -4 9 -10 -3 -5 1 -10 9 -10 9 0 16 -4 16 -10 0 -5 8 -7 18 -4 13 5
14 4 3 -4 -15 -11 -6 -36 10 -27 5 4 9 0 9 -7 0 -31 107 -50 203 -35 21 3 58
18 83 32 25 15 47 25 49 23 8 -8 -24 -37 -70 -61 -55 -30 -75 -33 -75 -14 0 7
-3 8 -8 2 -4 -5 -47 -10 -95 -11 -52 0 -93 -6 -99 -12 -7 -7 -18 -12 -26 -12
-17 0 -51 -40 -52 -60 0 -16 75 -40 135 -43 18 -1 38 -11 49 -25 18 -23 18
-23 0 -37 -18 -14 -18 -14 0 -15 15 0 17 -5 12 -26 -9 -33 1 -64 20 -64 12 0
12 -4 -2 -26 -13 -19 -24 -24 -41 -21 -14 3 -27 -2 -32 -11 -5 -8 -14 -12 -20
-8 -19 12 7 36 39 36 28 0 41 15 33 38 -7 18 -20 15 -26 -8 -3 -12 -14 -20
-25 -20 -11 0 -22 -6 -25 -12 -3 -8 -9 -1 -16 15 -12 31 -22 36 -14 8 3 -10
-1 -22 -8 -26 -8 -6 -10 -4 -4 6 7 12 6 12 -9 0 -14 -12 -19 -12 -25 -2 -6 9
-10 5 -15 -13 -7 -30 -18 -33 -39 -11 -13 13 -16 13 -21 -1 -3 -9 -6 -17 -6
-18 0 -1 16 -3 35 -4 19 -2 35 2 35 8 0 5 12 9 28 9 23 -2 24 -2 5 -6 -13 -2
-23 -8 -23 -12 0 -11 -67 -22 -86 -14 -9 3 -12 13 -9 24 4 11 2 19 -3 19 -5 0
-10 6 -9 13 1 32 -6 44 -37 64 -27 18 -35 19 -40 8 -2 -7 -14 -19 -26 -25 -19
-10 -21 -10 -11 8 14 26 10 61 -6 55 -7 -3 -13 -12 -13 -20 0 -8 -4 -11 -10
-8 -5 3 -10 -1 -10 -10 0 -9 -13 -21 -30 -26 -17 -6 -27 -16 -23 -22 3 -6 1
-7 -6 -3 -9 6 -9 11 -1 21 8 10 8 19 1 34 -15 27 -14 29 12 42 22 12 22 12 3
-10 -11 -11 -14 -21 -8 -21 16 0 34 38 26 52 -4 6 -3 8 4 4 6 -3 13 -2 16 3
13 21 -25 19 -39 -2 -8 -13 -28 -33 -43 -44 l-29 -21 5 25 c3 18 1 24 -7 19
-6 -4 -9 -12 -6 -17 3 -5 0 -7 -7 -4 -7 2 -22 -8 -32 -22 -14 -19 -16 -28 -7
-31 9 -3 9 -7 0 -18 -16 -20 0 -17 25 4 21 17 21 17 4 -4 -22 -25 -23 -34 -3
-34 8 0 15 -5 15 -12 0 -6 8 -4 19 6 16 15 19 15 24 1 5 -10 0 -15 -14 -15
-13 0 -18 -4 -13 -12 6 -10 4 -10 -7 -2 -21 17 -80 35 -91 28 -5 -3 0 -14 11
-23 11 -10 18 -21 14 -25 -3 -3 1 -6 11 -6 9 0 14 5 11 10 -11 18 11 11 29 -9
11 -12 14 -21 7 -26 -17 -10 -13 -25 4 -19 8 4 15 1 15 -5 0 -6 5 -11 11 -11
7 0 9 9 6 21 -5 18 -2 20 16 15 12 -3 25 -6 28 -6 4 0 9 -9 12 -20 4 -16 -1
-21 -29 -26 -26 -5 -46 0 -84 20 -50 26 -109 39 -65 14 11 -6 22 -14 25 -17 7
-9 51 -29 80 -37 14 -4 27 -10 30 -14 9 -12 80 -22 80 -11 0 6 -7 8 -15 5 -8
-4 -15 -1 -15 5 0 6 -7 11 -16 11 -10 0 -6 8 14 25 26 22 34 24 59 14 15 -6
51 -13 78 -15 28 -3 51 -9 53 -13 1 -4 22 -6 45 -4 34 4 40 2 30 -8 -7 -7 -13
-17 -13 -21 0 -12 104 -7 112 6 5 7 8 8 8 0 0 -7 34 -11 91 -13 81 -1 91 0 85
14 -3 9 1 26 10 38 15 21 16 21 9 -16 l-6 -38 70 2 c70 2 71 2 65 28 -10 46
-14 52 -25 45 -7 -4 -9 -3 -6 3 4 5 -3 19 -13 31 -24 25 -24 28 -5 36 8 3 14
0 12 -7 -1 -7 6 -11 15 -9 10 1 30 -15 50 -39 18 -22 47 -47 63 -55 18 -8 22
-9 11 -2 -37 25 -136 129 -136 143 0 8 15 29 32 47 18 18 31 39 30 46 -2 6 4
12 11 12 13 0 19 11 27 48 1 4 8 11 16 15 8 4 14 16 14 26 0 10 9 30 21 45 11
14 17 31 13 37 -4 8 -3 9 4 5 17 -10 34 28 19 44 -10 12 -9 12 4 2 13 -10 19
-8 35 11 45 51 46 54 31 84 -17 33 -12 53 12 53 19 0 51 30 51 48 0 6 5 14 12
18 8 5 9 2 5 -9 -12 -32 9 -17 26 19 10 21 12 32 5 28 -8 -5 -9 -2 -5 10 4 10
7 20 7 22 0 3 4 3 9 -1 5 -3 12 -1 16 5 3 5 1 10 -4 10 -20 0 -12 58 10 73 14
10 16 16 8 19 -9 3 -8 6 4 11 12 5 17 1 17 -12 0 -10 12 -35 26 -56 17 -26 24
-48 22 -71 -1 -18 1 -36 5 -40 4 -4 7 -20 7 -34 0 -41 11 -90 21 -90 10 0 -1
131 -13 146 -5 8 -2 14 9 18 13 5 14 9 5 15 -9 5 -11 17 -7 34 6 22 10 24 25
15 17 -11 17 -13 2 -24 -13 -9 -14 -15 -4 -26 7 -9 8 -18 2 -24 -5 -5 -5 -15
-1 -23 7 -10 12 -11 29 0 30 19 52 -3 53 -55 0 -31 2 -36 8 -21 5 11 6 24 4
28 -9 15 7 57 22 57 20 0 30 -21 14 -31 -10 -6 -10 -9 -2 -9 7 0 10 -7 6 -15
-3 -9 2 -24 11 -34 11 -12 15 -31 13 -60 -3 -31 0 -41 10 -37 11 5 18 -12 14
-36 0 -5 5 -8 13 -8 8 0 17 -8 19 -17 2 -10 3 -7 1 7 -1 14 -6 34 -10 45 -7
17 -6 18 8 7 13 -10 17 -10 21 2 9 23 36 13 53 -20 9 -16 22 -37 31 -46 8 -10
13 -24 10 -32 -4 -9 -2 -18 2 -21 12 -7 20 30 11 46 -10 15 -1 79 12 96 5 7 7
17 3 22 -3 7 0 8 10 5 8 -4 20 -15 26 -25 14 -28 39 -24 39 6 0 23 2 24 25 13
14 -6 25 -20 26 -32 0 -12 6 -64 13 -116 l13 -95 2 105 c1 112 8 153 22 144 5
-3 9 0 9 5 0 6 5 11 11 11 5 0 8 -4 5 -8 -3 -5 -1 -22 4 -38 6 -23 8 -14 8 41
0 39 -2 64 -5 58 -7 -19 -34 -16 -49 4 -20 27 -17 32 21 29 l36 -3 -3 51 c-3
48 -5 51 -33 57 l-30 7 33 1 32 1 0 1225 0 1225 -761 0 c-534 0 -766 -3 -781
-11 -15 -8 -19 -8 -14 0 5 7 -10 11 -46 10 -46 0 -50 -2 -28 -11 14 -6 20 -12
13 -15 -6 -2 -25 3 -42 11 -36 19 -188 21 -212 3z m30 -23 c-17 -21 -31 -17
-19 6 6 11 15 18 21 14 6 -4 6 -11 -2 -20z m281 -3 c0 -5 -8 -11 -17 -14 -10
-2 -27 -8 -38 -12 -17 -6 -17 -4 4 14 24 22 51 28 51 12z m-227 -64 c-4 -7 9
-5 72 10 16 3 17 2 5 -6 -8 -6 -25 -11 -37 -11 -13 0 -23 -4 -23 -10 0 -5 -10
-10 -22 -10 -12 0 -19 3 -16 6 4 3 2 19 -3 36 -8 30 -8 30 10 12 10 -10 16
-23 14 -27z m-51 9 c3 2 8 -1 10 -8 4 -9 -5 -13 -27 -14 -29 0 -32 2 -22 17 7
12 15 15 23 9 6 -6 13 -7 16 -4z m98 -146 c0 -5 -2 -10 -4 -10 -3 0 -8 5 -11
10 -3 6 -1 10 4 10 6 0 11 -4 11 -10z m207 -66 c-3 -3 -12 -4 -19 -1 -8 3 -5
6 6 6 11 1 17 -2 13 -5z m70 -189 c0 -8 -4 -12 -9 -9 -4 3 -8 9 -8 15 0 5 4 9
8 9 5 0 9 -7 9 -15z m8 -103 c-8 -8 16 -43 26 -37 5 4 9 -3 9 -14 0 -30 -15
-26 -44 12 -31 41 -31 43 -6 43 10 0 17 -2 15 -4z m125 -108 c0 -2 -7 -4 -15
-4 -8 0 -15 4 -15 10 0 5 7 7 15 4 8 -4 15 -8 15 -10z m40 6 c0 -5 -8 -10 -17
-10 -15 0 -16 2 -3 10 19 12 20 12 20 0z m1245 -580 c3 -6 -1 -7 -9 -4 -18 7
-21 14 -7 14 6 0 13 -4 16 -10z m-695 -80 c11 -8 7 -9 -15 -4 -37 8 -45 14
-19 14 10 0 26 -5 34 -10z m-13 -26 c-3 -3 -12 -4 -19 -1 -8 3 -5 6 6 6 11 1
17 -2 13 -5z m-39 -77 c12 -6 22 -15 22 -20 0 -5 -8 -3 -17 4 -15 12 -16 12
-11 -3 8 -21 -21 -48 -52 -48 -19 0 -21 3 -12 12 17 17 15 38 -3 38 -8 0 -15
4 -15 10 0 5 7 7 15 4 9 -4 15 0 15 10 0 16 13 15 58 -7z m417 -267 c3 -5 1
-10 -4 -10 -6 0 -11 5 -11 10 0 6 2 10 4 10 3 0 8 -4 11 -10z m-145 -204 c0
-2 -7 -7 -16 -10 -8 -3 -12 -2 -9 4 6 10 25 14 25 6z m-45 -26 c-3 -5 -12 -10
-18 -10 -7 0 -6 4 3 10 19 12 23 12 15 0z m486 -23 c-1 -12 -15 -9 -19 4 -3 6
1 10 8 8 6 -3 11 -8 11 -12z m-616 -35 c-3 -3 -11 0 -18 7 -9 10 -8 11 6 5 10
-3 15 -9 12 -12z m77 -14 c-8 -8 -9 -4 -5 13 4 13 8 18 11 10 2 -7 -1 -18 -6
-23z m-203 -3 c2 19 2 19 15 3 7 -10 18 -18 25 -18 6 0 11 -4 11 -10 0 -5 12
-10 26 -10 18 0 28 -6 31 -21 4 -13 11 -18 21 -14 12 5 14 -3 9 -47 -4 -29 -7
-63 -7 -75 0 -13 -5 -23 -11 -23 -5 0 -7 6 -3 13 4 7 3 8 -2 4 -5 -5 -9 -16
-10 -25 -3 -46 -5 -52 -19 -52 -8 0 -15 5 -15 10 0 6 -9 10 -20 10 -11 0 -20
5 -20 10 0 6 5 10 11 10 5 0 7 5 4 10 -4 6 -11 8 -16 5 -5 -4 -9 -2 -9 3 0 5
-12 7 -26 4 -18 -3 -25 -1 -20 6 3 6 -3 13 -14 17 -14 4 -19 12 -15 24 3 12
-3 22 -20 31 -17 9 -25 22 -25 41 0 35 20 80 32 73 4 -3 6 -10 3 -15 -4 -5 4
-9 17 -9 13 0 18 3 12 8 -6 4 -13 17 -17 30 -4 18 -3 21 8 12 9 -8 15 -6 20 7
7 16 9 15 15 -7 7 -21 8 -22 9 -5z m198 -37 c-3 -8 -6 -5 -6 6 -1 11 2 17 5
13 3 -3 4 -12 1 -19z m-10 -65 c-3 -10 -5 -2 -5 17 0 19 2 27 5 18 2 -10 2
-26 0 -35z m-22 -2 c3 -5 1 -12 -5 -16 -5 -3 -10 1 -10 9 0 18 6 21 15 7z
m389 -6 c3 -8 1 -15 -4 -15 -6 0 -10 7 -10 15 0 8 2 15 4 15 2 0 6 -7 10 -15z
m-407 -67 c-3 -7 -5 -2 -5 12 0 14 2 19 5 13 2 -7 2 -19 0 -25z m30 -5 c-3
-10 -5 -4 -5 12 0 17 2 24 5 18 2 -7 2 -21 0 -30z m398 -13 c-3 -5 -13 -10
-21 -10 -8 0 -14 5 -14 10 0 6 9 10 21 10 11 0 17 -4 14 -10z m-952 -31 c-3
-10 -11 -15 -19 -12 -20 8 -17 29 5 29 12 0 17 -6 14 -17z m751 -65 c3 -8 2
-12 -4 -9 -6 3 -10 10 -10 16 0 14 7 11 14 -7z m374 -12 c1 -5 -2 -13 -7 -17
-12 -7 -51 12 -51 25 0 12 53 5 58 -8z m-553 -2 c3 -5 1 -10 -4 -10 -6 0 -11
5 -11 10 0 6 2 10 4 10 3 0 8 -4 11 -10z m435 -49 c0 -5 -9 -11 -20 -14 -22
-6 -29 18 -7 26 14 5 27 -1 27 -12z m-410 -11 c0 -5 -9 -6 -20 -3 -11 3 -17 9
-15 14 7 10 35 1 35 -11z m583 -10 c-3 -11 -9 -17 -14 -15 -10 7 -1 35 11 35
5 0 6 -9 3 -20z m-723 -4 c0 -3 -4 -8 -10 -11 -5 -3 -10 -1 -10 4 0 6 5 11 10
11 6 0 10 -2 10 -4z m-186 -55 c-9 -10 -26 18 -18 30 5 9 9 8 14 -7 4 -10 6
-21 4 -23z m390 -13 c5 -10 7 -10 12 0 7 16 24 16 24 -1 0 -8 15 -12 45 -12
73 1 52 -13 -25 -17 -49 -2 -69 0 -66 8 2 6 -1 17 -7 23 -8 8 -8 11 0 11 6 0
14 -6 17 -12z m306 2 c-14 -4 -38 -8 -55 -8 -29 0 -29 0 -5 8 14 4 39 8 55 8
29 0 29 0 5 -8z m-1316 -21 c-7 -12 -51 -12 -59 0 -6 11 22 19 47 13 10 -2 15
-8 12 -13z m387 -1 c-8 -23 -31 -37 -31 -20 0 10 27 42 35 42 3 0 1 -10 -4
-22z m786 6 c-3 -3 -12 -4 -19 -1 -8 3 -5 6 6 6 11 1 17 -2 13 -5z m45 -2 c-9
-6 -10 -16 -3 -34 12 -32 4 -42 -17 -22 -12 12 -12 20 -4 40 7 13 17 24 24 24
10 0 10 -2 0 -8z m308 -44 c0 -13 -18 -9 -34 7 -8 9 -12 23 -9 32 5 13 9 12
24 -8 10 -13 19 -27 19 -31z m-1095 32 c-3 -5 -10 -10 -16 -10 -5 0 -9 5 -9
10 0 6 7 10 16 10 8 0 12 -4 9 -10z m265 -40 c0 -5 -5 -10 -11 -10 -5 0 -7 5
-4 10 3 6 8 10 11 10 2 0 4 -4 4 -10z m470 1 c0 -6 -4 -13 -10 -16 -5 -3 -10
1 -10 9 0 9 5 16 10 16 6 0 10 -4 10 -9z m23 -65 c6 -15 -1 -26 -15 -26 -4 0
-8 9 -8 20 0 23 15 27 23 6z m167 2 c0 -7 -4 -19 -9 -27 -11 -17 -25 3 -17 24
7 18 26 20 26 3z m90 8 c0 -3 -4 -8 -10 -11 -5 -3 -10 -1 -10 4 0 6 5 11 10
11 6 0 10 -2 10 -4z m-75 -36 c3 -5 1 -10 -4 -10 -6 0 -11 5 -11 10 0 6 2 10
4 10 3 0 8 -4 11 -10z m-155 -25 c7 -9 9 -19 5 -23 -4 -4 -10 -1 -12 6 -3 6
-14 12 -24 12 -11 0 -17 5 -14 10 9 15 31 12 45 -5z m40 -15 c0 -5 -4 -10 -10
-10 -5 0 -10 5 -10 10 0 6 5 10 10 10 6 0 10 -4 10 -10z m-565 -20 c3 -5 1
-10 -4 -10 -6 0 -11 5 -11 10 0 6 2 10 4 10 3 0 8 -4 11 -10z m602 -30 c-1
-11 -5 -20 -9 -20 -4 0 -8 9 -8 20 0 11 4 20 9 20 6 0 9 -9 8 -20z m-1030
-242 c-3 -8 -6 -5 -6 6 -1 11 2 17 5 13 3 -3 4 -12 1 -19z m-541 -56 c-10 -11
-16 -12 -16 -4 0 7 5 12 10 12 6 0 10 8 11 18 0 11 2 13 6 4 3 -8 -2 -21 -11
-30z m93 -48 c-10 -12 -14 -12 -20 -2 -13 19 -11 26 9 30 22 5 27 -8 11 -28z
m491 15 c0 -5 -4 -9 -10 -9 -5 0 -10 7 -10 16 0 8 5 12 10 9 6 -3 10 -10 10
-16z m-457 -28 c3 -13 1 -18 -9 -14 -7 2 -10 11 -7 19 7 19 10 18 16 -5z m49
-16 c-2 -14 -8 -22 -13 -19 -13 8 -11 32 4 37 6 3 13 6 13 6 1 1 -1 -10 -4
-24z m368 11 c0 -3 -4 -8 -10 -11 -5 -3 -10 -1 -10 4 0 6 5 11 10 11 6 0 10
-2 10 -4z m-145 -33 c-11 -3 -27 -10 -35 -17 -13 -10 -13 -9 -1 7 7 9 23 16
35 16 20 -1 20 -2 1 -6z m65 -23 c0 -5 -4 -10 -10 -10 -5 0 -10 5 -10 10 0 6
5 10 10 10 6 0 10 -4 10 -10z m63 -87 c-7 -2 -19 -2 -25 0 -7 3 -2 5 12 5 14
0 19 -2 13 -5z m-53 -7 c0 -3 -4 -8 -10 -11 -5 -3 -10 -1 -10 4 0 6 5 11 10
11 6 0 10 -2 10 -4z m77 -12 c-3 -3 -12 -4 -19 -1 -8 3 -5 6 6 6 11 1 17 -2
13 -5z"/>
<path d="M2560 1125 c0 -8 -5 -15 -11 -15 -5 0 -8 -4 -4 -10 9 -15 35 0 35 21
0 10 -4 19 -10 19 -5 0 -10 -7 -10 -15z"/>
<path d="M2498 1033 c6 -2 18 -2 25 0 6 3 1 5 -13 5 -14 0 -19 -2 -12 -5z"/>
<path d="M1267 3176 c-4 -10 -1 -13 9 -9 15 6 19 23 5 23 -5 0 -11 -7 -14 -14z"/>
<path d="M1235 3170 c-3 -5 -1 -10 4 -10 6 0 11 5 11 10 0 6 -2 10 -4 10 -3 0
-8 -4 -11 -10z"/>
<path d="M645 3120 c-4 -6 -10 -8 -15 -5 -4 3 -20 -12 -36 -33 l-27 -37 32 30
32 30 -17 -40 c-14 -35 -14 -38 0 -26 9 7 16 20 16 27 0 8 10 14 23 14 18 0
19 2 7 10 -13 8 -13 10 2 10 11 0 15 5 12 15 -7 17 -20 20 -29 5z"/>
<path d="M561 3078 c-14 -23 -14 -23 8 -4 22 20 25 26 13 26 -4 0 -13 -10 -21
-22z"/>
<path d="M455 3020 c-10 -11 -14 -20 -9 -20 5 0 15 9 22 20 7 11 11 20 9 20
-2 0 -12 -9 -22 -20z"/>
<path d="M481 3007 c-20 -22 -20 -25 -5 -38 14 -11 16 -10 12 7 -1 12 3 28 11
37 20 25 8 20 -18 -6z"/>
<path d="M912 2995 c2 -25 12 -32 22 -16 8 12 -3 41 -15 41 -5 0 -8 -11 -7
-25z"/>
<path d="M405 2908 c-41 -46 -52 -73 -33 -84 7 -4 8 -3 4 4 -4 7 -1 12 6 12 8
0 22 20 32 45 11 25 23 45 27 45 5 0 5 -8 2 -17 -6 -16 -5 -17 11 -3 11 8 14
16 7 18 -6 2 -9 8 -5 13 15 25 -16 4 -51 -33z"/>
<path d="M560 2845 c0 -5 5 -17 10 -25 5 -8 10 -10 10 -5 0 6 -5 17 -10 25 -5
8 -10 11 -10 5z"/>
<path d="M1630 2790 c0 -5 5 -10 10 -10 6 0 10 5 10 10 0 6 -4 10 -10 10 -5 0
-10 -4 -10 -10z"/>
<path d="M317 2729 c-12 -31 -13 -38 -3 -29 14 11 30 59 23 66 -2 2 -11 -14
-20 -37z"/>
<path d="M516 2744 c-4 -14 -5 -29 -2 -31 3 -3 8 7 12 21 3 15 4 29 1 32 -2 3
-8 -7 -11 -22z"/>
<path d="M488 2675 c3 -19 8 -23 15 -16 8 8 7 16 -5 27 -14 14 -15 14 -10 -11z"/>
<path d="M345 2679 c-4 -6 -5 -12 -2 -15 2 -3 7 2 10 11 7 17 1 20 -8 4z"/>
<path d="M805 2619 c-9 -17 -14 -38 -12 -47 3 -11 7 -6 12 15 4 18 10 31 14
29 4 -3 7 4 7 15 0 26 -3 24 -21 -12z"/>
<path d="M265 2620 c-10 -11 -13 -20 -8 -20 13 0 38 29 31 35 -3 3 -13 -4 -23
-15z"/>
<path d="M339 2575 c-3 -5 -6 -23 -7 -40 -2 -21 1 -26 9 -18 6 6 9 23 7 39 -2
16 -6 25 -9 19z"/>
<path d="M810 2527 c0 -9 -4 -17 -10 -17 -5 0 -10 -4 -10 -10 0 -5 4 -10 9
-10 12 0 25 39 17 47 -3 4 -6 -1 -6 -10z"/>
<path d="M391 2514 c0 -11 3 -14 6 -6 3 7 2 16 -1 19 -3 4 -6 -2 -5 -13z"/>
<path d="M770 2381 c0 -5 7 -12 16 -15 14 -5 15 -4 4 9 -14 17 -20 19 -20 6z"/>
<path d="M735 2350 c-3 -5 -1 -10 4 -10 6 0 11 5 11 10 0 6 -2 10 -4 10 -3 0
-8 -4 -11 -10z"/>
<path d="M283 2253 c-3 -10 -8 -21 -10 -25 -2 -4 3 -5 10 -2 17 6 30 44 16 44
-5 0 -12 -8 -16 -17z"/>
<path d="M316 2261 c-7 -11 3 -41 14 -41 4 0 13 7 21 16 10 13 10 17 -2 25
-18 11 -26 11 -33 0z"/>
<path d="M315 2160 c-3 -5 1 -10 9 -10 9 0 16 5 16 10 0 6 -4 10 -9 10 -6 0
-13 -4 -16 -10z"/>
<path d="M480 2141 c0 -5 9 -7 20 -4 11 3 20 7 20 9 0 2 -9 4 -20 4 -11 0 -20
-4 -20 -9z"/>
<path d="M1383 2084 c-18 -9 -31 -20 -28 -23 2 -4 -13 -13 -33 -21 -20 -7 -42
-19 -50 -26 -11 -12 -8 -14 20 -14 18 0 80 -3 138 -5 58 -3 147 -7 198 -9 55
-3 90 -1 87 5 -4 5 1 9 9 9 9 0 16 -6 16 -14 0 -8 7 -17 16 -20 24 -9 29 -7
16 6 -7 7 -12 19 -12 28 1 12 2 12 11 -2 5 -10 17 -18 24 -18 19 0 19 28 0 60
-16 29 -20 14 -5 -24 5 -14 6 -26 2 -26 -8 0 -35 40 -38 55 0 6 -2 16 -2 23
-1 6 -9 12 -17 12 -8 0 -15 -6 -15 -12 -1 -8 -6 -6 -14 4 -7 10 -15 16 -17 14
-2 -2 -35 -1 -74 3 -44 5 -91 3 -128 -5 -31 -6 -60 -8 -62 -4 -3 5 1 11 7 13
9 4 8 6 -2 6 -8 0 -30 -7 -47 -15z"/>
<path d="M1814 2035 c5 -11 9 -26 9 -32 0 -16 23 -17 33 -1 4 7 3 8 -4 4 -7
-4 -12 -1 -12 7 0 8 -8 21 -17 28 -15 12 -16 12 -9 -6z"/>
<path d="M365 1970 c3 -5 8 -10 11 -10 2 0 4 5 4 10 0 6 -5 10 -11 10 -5 0 -7
-4 -4 -10z"/>
<path d="M1576 1945 c-20 -11 -60 -15 -134 -15 -121 0 -217 -14 -278 -42 -52
-23 -68 -41 -27 -33 21 5 24 4 13 -4 -8 -6 -26 -11 -39 -11 -15 0 -21 -4 -15
-9 5 -5 44 -11 86 -14 75 -5 158 -31 158 -50 0 -5 7 -3 16 4 15 12 16 11 9
-11 -7 -22 -6 -23 7 -12 13 10 17 10 22 -3 3 -8 16 -15 28 -16 22 -1 22 -1 -2
-9 l-25 -8 25 -1 c53 -3 -5 -21 -70 -22 l-65 -1 45 -10 c25 -5 53 -14 63 -19
9 -5 35 -6 57 -3 32 5 40 4 38 -7 -2 -9 7 -15 25 -17 15 -2 27 1 27 7 0 6 15
11 34 11 18 0 46 6 61 14 15 8 34 12 41 9 8 -3 14 1 14 11 0 9 5 16 11 16 6 0
8 7 5 17 -4 9 -1 20 6 24 11 7 11 12 0 29 -12 20 -11 20 7 11 35 -19 44 -14
38 24 -4 26 -2 35 8 35 25 0 1 53 -34 72 -18 10 -30 14 -26 8 3 -5 2 -10 -3
-10 -6 0 -13 8 -16 17 -6 15 -8 15 -16 3 -8 -12 -10 -12 -10 -1 0 10 -10 12
-42 7 -40 -6 -42 -6 -23 8 26 20 18 20 -19 1z m-292 -45 c-5 -5 -25 -12 -44
-15 -35 -5 -35 -5 5 9 51 18 51 18 39 6z m45 -77 c1 -18 -13 -16 -40 6 l-24
20 25 9 c25 10 37 -1 39 -35z m234 26 c12 -12 17 -19 11 -16 -6 4 -16 -5 -22
-18 -9 -20 -19 -25 -47 -25 -35 0 -36 0 -21 22 9 12 16 30 16 40 0 25 36 23
63 -3z"/>
<path d="M395 1920 c-3 -5 -1 -10 4 -10 6 0 11 5 11 10 0 6 -2 10 -4 10 -3 0
-8 -4 -11 -10z"/>
<path d="M340 1910 c0 -4 7 -10 15 -14 8 -3 15 -12 15 -20 0 -7 9 -16 20 -19
13 -3 20 0 20 9 0 8 -7 14 -15 14 -8 0 -15 6 -15 14 0 7 -9 16 -20 19 -11 3
-20 2 -20 -3z"/>
<path d="M345 1789 c-4 -6 -5 -12 -2 -15 2 -3 7 2 10 11 7 17 1 20 -8 4z"/>
<path d="M1748 1743 c7 -3 16 -2 19 1 4 3 -2 6 -13 5 -11 0 -14 -3 -6 -6z"/>
<path d="M486 1707 c3 -10 9 -15 12 -12 3 3 0 11 -7 18 -10 9 -11 8 -5 -6z"/>
<path d="M1857 1151 c-10 -4 -18 -11 -18 -16 1 -6 -14 -14 -31 -19 l-33 -9 29
-12 c39 -16 68 -8 61 16 -7 20 -1 23 50 19 17 -1 27 1 24 4 -12 13 -64 23 -82
17z"/>
<path d="M1974 1105 c8 -8 17 -15 20 -15 3 0 6 7 6 15 0 9 -9 15 -21 15 -18 0
-19 -2 -5 -15z"/>
<path d="M1858 1073 c6 -2 18 -2 25 0 6 3 1 5 -13 5 -14 0 -19 -2 -12 -5z"/>
<path d="M1556 913 c-6 -14 -5 -15 5 -6 7 7 10 15 7 18 -3 3 -9 -2 -12 -12z"/>
<path d="M1910 920 c0 -5 5 -10 11 -10 5 0 7 5 4 10 -3 6 -8 10 -11 10 -2 0
-4 -4 -4 -10z"/>
<path d="M2563 855 c-3 -9 -3 -19 1 -22 3 -4 6 1 6 10 0 8 6 18 13 20 9 4 9 6
-1 6 -7 1 -15 -6 -19 -14z"/>
<path d="M2486 663 c-6 -14 -5 -15 5 -6 7 7 10 15 7 18 -3 3 -9 -2 -12 -12z"/>
<path d="M1698 653 c7 -3 16 -2 19 1 4 3 -2 6 -13 5 -11 0 -14 -3 -6 -6z"/>
<path d="M2820 629 c0 -5 5 -7 10 -4 6 3 10 8 10 11 0 2 -4 4 -10 4 -5 0 -10
-5 -10 -11z"/>
<path d="M2447 603 c-4 -3 -7 -11 -7 -17 0 -6 5 -5 12 2 6 6 9 14 7 17 -3 3
-9 2 -12 -2z"/>
<path d="M3053 524 c-3 -8 -1 -20 6 -27 8 -8 11 -4 11 16 0 30 -7 35 -17 11z"/>
<path d="M1358 510 c-7 -11 -18 -20 -25 -20 -7 0 -13 -5 -13 -11 0 -6 9 -8 20
-4 14 5 20 2 20 -10 0 -9 5 -13 10 -10 6 4 8 11 5 16 -4 5 8 9 24 9 36 0 40
-17 11 -51 -17 -21 -19 -22 -20 -5 0 14 -5 17 -22 12 -13 -3 -31 -6 -40 -6
-10 0 -18 -5 -18 -11 0 -7 11 -9 30 -5 17 3 30 1 30 -4 0 -6 -9 -10 -19 -10
-27 0 -35 -17 -11 -23 13 -3 18 -1 13 6 -4 6 0 8 10 4 10 -3 17 -2 17 3 0 6 8
10 18 10 25 -1 -34 -48 -70 -56 -16 -3 -26 -10 -22 -15 3 -5 0 -9 -6 -9 -6 0
-9 -4 -6 -9 4 -5 0 -12 -6 -14 -7 -3 -2 -6 11 -6 19 -1 21 -4 12 -15 -18 -22
34 -13 59 9 21 19 28 41 8 29 -7 -5 -8 -3 -4 5 5 7 14 10 22 7 7 -3 16 0 20 6
5 7 -8 9 -42 5 -27 -3 -40 -3 -29 0 11 3 25 9 32 15 8 6 19 6 32 -1 25 -14 28
-14 34 3 4 11 -1 13 -20 10 l-25 -5 22 31 c12 17 26 28 31 25 14 -9 70 28 67
44 -2 9 -20 19 -41 24 -20 5 -37 13 -37 19 0 6 -17 7 -42 3 -40 -6 -42 -6 -23
9 11 8 14 16 8 16 -7 0 -18 -9 -25 -20z m117 -40 c3 -6 -1 -7 -9 -4 -18 7 -21
14 -7 14 6 0 13 -4 16 -10z"/>
<path d="M2681 504 c0 -11 3 -14 6 -6 3 7 2 16 -1 19 -3 4 -6 -2 -5 -13z"/>
<path d="M1315 450 c-18 -8 -17 -9 8 -9 15 -1 27 4 27 9 0 12 -8 12 -35 0z"/>
<path d="M1680 449 c0 -5 5 -7 10 -4 6 3 10 8 10 11 0 2 -4 4 -10 4 -5 0 -10
-5 -10 -11z"/>
<path d="M295 440 c3 -5 8 -10 11 -10 2 0 4 5 4 10 0 6 -5 10 -11 10 -5 0 -7
-4 -4 -10z"/>
<path d="M1474 406 c-10 -8 -16 -17 -12 -21 8 -8 48 13 48 25 0 14 -13 12 -36
-4z"/>
<path d="M1808 393 c7 -3 16 -2 19 1 4 3 -2 6 -13 5 -11 0 -14 -3 -6 -6z"/>
<path d="M1490 375 c-14 -16 -3 -20 19 -6 8 5 9 11 3 15 -5 3 -15 -1 -22 -9z"/>
<path d="M1266 352 c-2 -4 -1 -13 3 -20 4 -8 11 -5 19 8 10 16 10 20 -2 20 -8
0 -17 -4 -20 -8z"/>
<path d="M177 335 c3 -11 9 -63 13 -115 7 -94 9 -93 15 6 2 34 -3 63 -16 90
-11 21 -16 30 -12 19z"/>
<path d="M1540 310 c0 -5 7 -7 15 -4 8 4 15 8 15 10 0 2 -7 4 -15 4 -8 0 -15
-4 -15 -10z"/>
<path d="M1505 260 c3 -5 8 -10 11 -10 2 0 4 5 4 10 0 6 -5 10 -11 10 -5 0 -7
-4 -4 -10z"/>
<path d="M3210 240 c-5 -90 9 -240 21 -240 11 0 1 224 -12 255 -6 16 -8 13 -9
-15z"/>
<path d="M2785 241 c4 -8 2 -17 -6 -22 -10 -6 -11 -9 -1 -9 6 0 12 -5 12 -11
0 -5 -4 -8 -10 -4 -11 7 -50 -25 -50 -41 0 -6 11 -14 25 -16 21 -4 25 -1 25
19 0 31 22 26 31 -8 5 -16 7 -18 8 -6 1 14 5 16 19 8 11 -6 24 -6 33 0 12 7
11 9 -3 9 -10 0 -15 5 -12 13 3 9 -5 13 -23 12 -22 0 -28 5 -29 23 -1 13 -7
29 -14 35 -10 9 -11 9 -5 -2z"/>
<path d="M3011 218 c-5 -13 -6 -29 -4 -35 9 -24 18 -13 19 22 1 41 -3 44 -15
13z"/>
<path d="M1708 203 c5 -21 7 -23 10 -9 2 10 0 22 -6 28 -6 6 -7 0 -4 -19z"/>
<path d="M2700 210 c0 -5 5 -10 10 -10 6 0 10 5 10 10 0 6 -4 10 -10 10 -5 0
-10 -4 -10 -10z"/>
<path d="M1290 200 c0 -5 7 -10 16 -10 8 0 12 5 9 10 -3 6 -10 10 -16 10 -5 0
-9 -4 -9 -10z"/>
<path d="M2898 178 c7 -7 12 -21 13 -32 0 -12 3 -15 6 -8 3 9 9 10 17 3 8 -7
11 -3 10 17 0 15 -5 25 -10 24 -5 -2 -8 -9 -6 -15 1 -7 -4 -4 -11 6 -8 9 -18
17 -23 17 -4 0 -3 -5 4 -12z"/>
<path d="M3164 164 c3 -9 6 -18 6 -20 0 -2 5 -4 10 -4 6 0 10 9 10 20 0 12 -7
20 -16 20 -11 0 -14 -5 -10 -16z"/>
<path d="M2973 126 c-13 -13 -23 -29 -23 -36 0 -7 -6 -10 -14 -7 -16 7 -29
-30 -14 -39 6 -4 5 -10 -3 -15 -20 -12 -30 -1 -24 29 5 27 -9 52 -29 52 -6 0
-4 -5 4 -11 12 -9 11 -10 -7 -6 -13 3 -23 1 -23 -4 0 -5 9 -9 19 -9 21 0 31
-17 23 -37 -2 -7 -11 -13 -20 -13 -12 0 -13 -3 -5 -11 13 -13 84 -24 82 -12
-3 20 2 37 9 28 25 -34 107 -45 107 -15 0 9 -7 14 -18 12 -20 -3 -47 14 -47
30 0 5 6 6 13 2 10 -6 10 -4 0 7 -15 16 -17 33 -3 24 6 -3 10 -2 10 4 0 5 -5
13 -11 16 -6 4 -8 13 -5 21 7 19 5 18 -21 -10z m9 -28 c-6 -6 -15 -8 -19 -4
-4 4 -1 11 7 16 19 12 27 3 12 -12z m51 -85 c-7 -2 -19 -2 -25 0 -7 3 -2 5 12
5 14 0 19 -2 13 -5z"/>
<path d="M1246 131 c5 -5 20 -12 34 -15 l25 -7 -25 15 c-28 17 -50 21 -34 7z"/>
<path d="M50 120 c-8 -5 -10 -10 -5 -10 6 0 17 5 25 10 8 5 11 10 5 10 -5 0
-17 -5 -25 -10z"/>
<path d="M2730 100 c0 -5 7 -7 15 -4 8 4 15 8 15 10 0 2 -7 4 -15 4 -8 0 -15
-4 -15 -10z"/>
<path d="M2771 98 c-1 -10 -7 -18 -15 -18 -11 0 -13 -9 -10 -36 4 -32 2 -35
-16 -29 -11 4 -20 2 -20 -4 0 -6 11 -11 24 -11 18 0 27 8 35 30 5 17 15 30 20
30 6 0 11 -13 11 -30 0 -20 5 -30 15 -30 8 0 15 6 15 14 0 8 7 21 15 29 13 13
13 16 0 21 -8 3 -15 1 -15 -4 0 -6 -4 -10 -10 -10 -5 0 -10 15 -10 33 -1 29
-2 30 -12 12 -11 -19 -11 -19 -19 0 -7 17 -8 18 -8 3z"/>
<path d="M3050 92 c0 -6 -8 -12 -17 -13 -11 0 -13 -3 -5 -6 6 -2 9 -10 5 -16
-4 -8 -1 -7 9 1 13 10 17 10 22 -4 3 -8 6 -24 6 -35 0 -10 5 -19 11 -19 7 0 8
12 4 32 -8 34 -35 81 -35 60z"/>
<path d="M2710 70 c0 -5 5 -10 10 -10 6 0 10 5 10 10 0 6 -4 10 -10 10 -5 0
-10 -4 -10 -10z"/>
<path d="M2585 30 c-3 -6 1 -7 9 -4 18 7 21 14 7 14 -6 0 -13 -4 -16 -10z"/>
<path d="M2220 17 c0 -7 9 -13 19 -13 15 0 17 3 9 13 -6 7 -14 13 -19 13 -5 0
-9 -6 -9 -13z"/>
<path d="M1640 10 c0 -5 4 -10 9 -10 6 0 13 5 16 10 3 6 -1 10 -9 10 -9 0 -16
-4 -16 -10z"/>
<path d="M2645 10 c-8 -13 5 -13 25 0 13 8 13 10 -2 10 -9 0 -20 -4 -23 -10z"/>
</g>
</svg>
